<svg xmlns="http://www.w3.org/2000/svg" viewBox="0 0 40.95 40"><defs><style>.cls-1{fill:#f73;}</style></defs><title>1.Economy</title><g id="Layer_2" data-name="Layer 2"><g id="Layer_1-2" data-name="Layer 1"><path class="cls-1" d="M30,18V.72A.72.72,0,0,0,29.28,0H22.76A.72.72,0,0,0,22,.72V21.33a11,11,0,0,0-2.39,3.77V8.68A.72.72,0,0,0,18.92,8H12.4a.72.72,0,0,0-.72.72V32.35H9.28V16a.72.72,0,0,0-.72-.72H2a.72.72,0,0,0-.72.72V32.35H.72a.72.72,0,1,0,0,1.45H20A11,11,0,1,0,30,18ZM28.56,1.45V18.07a10.94,10.94,0,0,0-5.08,2V1.45Zm-15.44,8H18.2V32.35H13.12ZM2.76,16.71H7.84V32.35H2.76ZM29.94,38.55A9.57,9.57,0,1,1,39.5,29,9.58,9.58,0,0,1,29.94,38.55Z"/><path class="cls-1" d="M34.5,24.22h0a.72.72,0,0,0-.16-.24l-.06,0A.71.71,0,0,0,34,23.8l-.12,0h-7.3a.72.72,0,1,0,0,1.45h5.38c-1,.94-2.4,2.44-4.64,4.81-1.11,1.17-2.07,2.18-2.42,2.52a.72.72,0,1,0,1,1c.38-.36,1.3-1.34,2.47-2.57,1.33-1.4,3.47-3.67,4.78-4.95V31.8a.72.72,0,1,0,1.45,0V24.5A.72.72,0,0,0,34.5,24.22Z"/></g></g></svg>