<svg xmlns="http://www.w3.org/2000/svg" viewBox="0 0 43.48 40"><defs><style>.cls-1{fill:#f73;}</style></defs><title>2.Education</title><g id="Layer_2" data-name="Layer 2"><g id="Layer_1-2" data-name="Layer 1"><path class="cls-1" d="M42.45,9.09,23.77.39a3.69,3.69,0,0,0-3-.13l-19,9a1.59,1.59,0,0,0-.86,1.49,1.85,1.85,0,0,0,1,1.69l3.22,1.45a17.56,17.56,0,0,0-.31,5.23c0,.86.06,1.75,0,2.62v0a2.69,2.69,0,0,0-.33,5.15.72.72,0,0,0-.06.29c-.07,4-1.65,7.43-4.14,8.86a.72.72,0,0,0-.07,1.21l3.51,2.6a.72.72,0,0,0,.92,0c2.84-2.62,2.35-5,1.79-7.84a21.62,21.62,0,0,1-.57-4.77.72.72,0,0,0,0-.19,2.69,2.69,0,0,0,.41-5.19.77.77,0,0,0,0-.08c0-.91,0-1.81,0-2.69a18.23,18.23,0,0,1,.2-4.57l2.26,1.06a.72.72,0,0,0-.09.35v7.78c0,4,6,7.1,13.73,7.1s13.73-3.12,13.73-7.1V15.51a.72.72,0,0,0,0-.17l6.52-3.07a1.59,1.59,0,0,0,.86-1.49A1.86,1.86,0,0,0,42.45,9.09ZM4.17,38.33,2,36.7a9.88,9.88,0,0,0,3.11-4.51v.07C5.59,34.74,5.94,36.44,4.17,38.33Zm2.55-14a1.24,1.24,0,1,1-1.24-1.24A1.24,1.24,0,0,1,6.71,24.37Zm28-.71c0,3.06-5.63,5.65-12.29,5.65s-12.29-2.59-12.29-5.65V16.18l10.5,4.93a3.7,3.7,0,0,0,3,.13L34.68,16ZM42,11l-19,9a2.33,2.33,0,0,1-1.76-.14L8.35,13.75l13.76-2.84a.72.72,0,0,0-.29-1.42L6.16,12.72,2.53,11.1a.39.39,0,0,1-.18-.29.43.43,0,0,1,0-.27l19-9a2.29,2.29,0,0,1,1.77.14l18.68,8.7a.4.4,0,0,1,.18.28A.53.53,0,0,1,42,11Z"/></g></g></svg>