<svg xmlns="http://www.w3.org/2000/svg" viewBox="0 0 39.6 40"><defs><style>.cls-1{fill:#f73;}</style></defs><title>3.Environment</title><g id="Layer_2" data-name="Layer 2"><g id="Layer_1-2" data-name="Layer 1"><path class="cls-1" d="M24.83,29.4a5,5,0,0,0,6.16.75,6.79,6.79,0,0,0,.89-.75l.29-.27a6.64,6.64,0,0,0,5.28-2,6.77,6.77,0,0,0,.84-8.5,5.06,5.06,0,0,0-1.22-7.76,6.82,6.82,0,0,0-2-4.25,6.75,6.75,0,0,0-8-1.19,6.83,6.83,0,0,0-.78.49A6.25,6.25,0,0,0,24.5,1.84a6.21,6.21,0,0,0-8.13-.61l-.11.11C15.68,2,15.12,2.7,14.8,3.09a4.93,4.93,0,0,0-3.65,1,5,5,0,0,0-1,1l-.45-.16A7.53,7.53,0,0,0,0,12.17a7.62,7.62,0,0,0,.85,3.48,7.54,7.54,0,0,0,1.46,2v0a6.08,6.08,0,0,0-.13,1.23A6,6,0,0,0,3.82,23a5.94,5.94,0,0,0,2.59,1.61A6,6,0,0,0,8.1,28a5.95,5.95,0,0,0,6.66,1.25L14,36.77A58.27,58.27,0,0,0,2,38.58.72.72,0,0,0,2.22,40l.2,0A66.39,66.39,0,0,1,18.87,38h1c6.86,0,13.24.71,17.49,1.94a.71.71,0,0,0,.2,0,.72.72,0,0,0,.2-1.42,59.53,59.53,0,0,0-12.71-1.86L23.8,29.2l.45-.51A5,5,0,0,0,24.83,29.4ZM9.12,27A4.57,4.57,0,0,1,7.8,24a.72.72,0,0,0-.58-.67A4.49,4.49,0,0,1,4.87,22a4.56,4.56,0,0,1-1.25-3.14,4.64,4.64,0,0,1,.1-.94c0-.12.06-.24.09-.36a.72.72,0,0,0-.22-.75A6.1,6.1,0,0,1,10.14,6.65a.72.72,0,0,0,.95-.3,3.59,3.59,0,0,1,1-1.11,3.63,3.63,0,0,1,2.88-.67c.45.11.66-.15,1-.51s.85-1,1.43-1.72a4.76,4.76,0,0,1,6.17.51,4.81,4.81,0,0,1,1.4,3.41,6,6,0,0,1-.19,1.1.72.72,0,0,0,.55.87l.2.05a.72.72,0,0,0,.75-.24,5.34,5.34,0,0,1,4.12-2A5.29,5.29,0,0,1,34.1,7.68a5.38,5.38,0,0,1,1.57,3.69.72.72,0,0,0,.42.64,3.61,3.61,0,0,1,.8,6,.72.72,0,0,0-.09,1,5.33,5.33,0,0,1-.35,7.11,5.21,5.21,0,0,1-3.59,1.55.77.77,0,0,0-.28-.15.73.73,0,0,0-.44,0l-.3.11c-.26.05-.48.26-.92.67a7.94,7.94,0,0,1-.67.58,3.51,3.51,0,0,1-5-1.45l2.51-4.18,3.07-6.34a1.55,1.55,0,0,0-2.86-1.21l-4.39,6.38-3.09,2.27-2.53-5,2.63-5.53a1.55,1.55,0,0,0-1.75-2.27,1.52,1.52,0,0,0-.92.7l-2.59,4-5.15-4.87a1.55,1.55,0,0,0-2.61,1.19,1.54,1.54,0,0,0,.45,1l4.52,5.69,1.77,7c0,.24.14.6.3,1.2l0,.17A4.46,4.46,0,0,1,9.12,27Zm10.79,9.57h-1c-1.18,0-2.33.05-3.47.11l.85-8c.07-.23,0-.59-.3-1.57-.11-.4-.22-.8-.26-1a.7.7,0,0,0,0-.14l-1.82-7.21a.72.72,0,0,0-.14-.27L9.09,12.71S9,12.5,9,12.48a.11.11,0,0,1,.15,0l5.56,5.26a.72.72,0,0,0,1.28.13L19.12,13a.12.12,0,0,1,.14,0c.05,0,.07.09,0,.19l-2.81,5.9a.72.72,0,0,0,0,.64l3.07,6.11a.72.72,0,0,0,1.07.26l3.88-2.85a.73.73,0,0,0,.17-.17l4.5-6.54a.75.75,0,0,0,.08-.15.1.1,0,0,1,.14-.06.2.2,0,0,1,.09.08l-3,6.23L23.81,27l-1.32,1.5a.72.72,0,0,0-.17.6l1.31,7.56C22.41,36.62,21.17,36.59,19.92,36.59Z"/></g></g></svg>