<svg xmlns="http://www.w3.org/2000/svg" viewBox="0 0 39.07 40"><defs><style>.cls-1{fill:#f73;}</style></defs><title>4.Finance</title><g id="Layer_2" data-name="Layer 2"><g id="Layer_1-2" data-name="Layer 1"><path class="cls-1" d="M27.18,16.21a11.84,11.84,0,0,0-3,.4V10.23H30a.72.72,0,0,0,.72-.72V5.11A.72.72,0,0,0,30,4.39H26.48V.72A.72.72,0,0,0,25.76,0H3A.72.72,0,0,0,2.3.72V5.11A.72.72,0,0,0,3,5.84H6.58V8.78H.72A.72.72,0,0,0,0,9.51V35.86a.72.72,0,0,0,.72.72H18.85a11.89,11.89,0,1,0,8.33-20.37Zm-5.51,1.36H1.45V14.62H22.73v2.46Q22.19,17.3,21.67,17.57ZM1.45,27.8H15.3c0,.1,0,.2,0,.31a11.86,11.86,0,0,0,.3,2.64H1.45Zm14-1.45h-14V23.4H16.26A11.8,11.8,0,0,0,15.43,26.35ZM17,22H1.45V19H19.53A12,12,0,0,0,17,22ZM3.75,1.45H25V4.39H3.75ZM8,5.84H29.31V8.78H8Zm14.71,4.39v2.95H1.45V10.23Zm-21.29,22H16a11.86,11.86,0,0,0,1.58,2.95H1.45Zm25.73,6.37A10.45,10.45,0,1,1,37.63,28.1,10.46,10.46,0,0,1,27.18,38.55Z"/><path class="cls-1" d="M27.24,27.38h-.05c-1.58,0-2.76-.46-3.17-1.22A1.12,1.12,0,0,1,24.1,25c.42-.62,1.52-1.2,3.38-1a14.09,14.09,0,0,1,2.79.74l.2.07a.72.72,0,1,0,.46-1.37l-.2-.07a16.79,16.79,0,0,0-2.82-.76V20.39a.72.72,0,1,0-1.45,0v2.1a4.36,4.36,0,0,0-3.55,1.65,2.57,2.57,0,0,0-.17,2.69c.68,1.27,2.33,2,4.48,2,1.58,0,2.71.46,3.13,1.23a1.14,1.14,0,0,1-.08,1.23c-.53.78-1.77,1.13-3.32,1a14,14,0,0,1-2.78-.73l-.2-.07a.72.72,0,0,0-.46,1.37l.2.07a17.16,17.16,0,0,0,2.76.75v2.19a.72.72,0,1,0,1.45,0v-2.1a4.32,4.32,0,0,0,3.55-1.62,2.6,2.6,0,0,0,.16-2.72C30.94,28.11,29.35,27.38,27.24,27.38Z"/></g></g></svg>