<svg xmlns="http://www.w3.org/2000/svg" viewBox="0 0 44.82 40"><defs><style>.cls-1{fill:#f73;}</style></defs><title>5.Health</title><g id="Layer_2" data-name="Layer 2"><g id="Layer_1-2" data-name="Layer 1"><path class="cls-1" d="M41.42,3.91A12.55,12.55,0,0,0,32.32,0C24.24,0,23,4.41,22.42,7.05,21.86,4.41,20.59,0,12.52,0a12.55,12.55,0,0,0-9.1,3.91C-1,8.48-1.13,14.28,3,21.16a.72.72,0,1,0,1.24-.74C.48,14.17.57,9,4.46,4.91a11.12,11.12,0,0,1,8.06-3.47c7.27,0,8,3.61,8.56,6.25a4.45,4.45,0,0,0,.82,2.2.72.72,0,0,0,1,0,4.46,4.46,0,0,0,.82-2.2c.55-2.64,1.29-6.25,8.56-6.25a11.12,11.12,0,0,1,8.06,3.47A10,10,0,0,1,43.32,13c-.34,3.62-2.34,7.34-5,10.79H30.9l-2.6-9.12a.72.72,0,0,0-1.39,0c-1.69,5.95-3.06,9.76-4.92,14.89l-1.8-5.29a.72.72,0,0,0-.68-.49H16.08L13.34,9.13a.72.72,0,0,0-.71-.59h0a.72.72,0,0,0-.7.61L9.54,23.81H.72a.72.72,0,1,0,0,1.45h9.44a.72.72,0,0,0,.71-.61l1.81-11.17,2.09,11.19a.72.72,0,0,0,.71.59H19L21.28,32a.72.72,0,0,0,.68.49h0a.72.72,0,0,0,.68-.48l.57-1.56c1.67-4.62,2.94-8.13,4.38-12.95l2.06,7.23a.72.72,0,0,0,.7.52h6.84A79.75,79.75,0,0,1,23.26,37.88l-.52.38-.33.24-.3-.23-.66-.5a84.43,84.43,0,0,1-10.72-9.16.72.72,0,0,0-1,1A86,86,0,0,0,20.6,39l.62.47A2.06,2.06,0,0,0,22.4,40a2.16,2.16,0,0,0,1.2-.57l.5-.36c3.26-2.32,19.6-14.48,20.67-25.9A11.34,11.34,0,0,0,41.42,3.91Z"/></g></g></svg>