<svg xmlns="http://www.w3.org/2000/svg" viewBox="0 0 32.78 40"><defs><style>.cls-1{fill:#f73;}</style></defs><title>6.Infrastructure</title><g id="Layer_2" data-name="Layer 2"><g id="Layer_1-2" data-name="Layer 1"><path class="cls-1" d="M4.18,12.14H5.62v2.18H4.18Zm3.36,0H9v2.18H7.54Zm3.36,0h1.44v2.18H10.9ZM4.18,16.38H5.62v2.18H4.18Zm3.36,0H9v2.18H7.54Zm3.36,0h1.44v2.18H10.9ZM4.18,20.66H5.62v2.18H4.18Zm3.36,0H9v2.18H7.54Zm3.36,0h1.44v2.18H10.9ZM4.18,24.9H5.62v2.18H4.18Zm3.36,0H9v2.18H7.54Zm3.36,0h1.44v2.18H10.9ZM4.18,29.14H5.62v2.18H4.18Zm3.36,0H9v2.18H7.54Zm3.36,0h1.44v2.18H10.9ZM4.18,33.38H5.62v2.18H4.18Zm3.36,0H9v2.18H7.54Zm3.36,0h1.44v2.18H10.9Zm8.3-10.58H17.77V20.62h1.44Zm3.36,0H21.13V20.62h1.44Zm3.36,0H24.5V20.62h1.44ZM19.21,27H17.77V24.86h1.44Zm3.36,0H21.13V24.86h1.44Zm3.36,0H24.5V24.86h1.44Zm-6.73,4.28H17.77V29.14h1.44Zm3.36,0H21.13V29.14h1.44Zm3.36,0H24.5V29.14h1.44Zm-8.17,4.24V33.38h1.44v2.18Zm4.81,0H21.13V33.38h1.44Zm3.36,0H24.5V33.38h1.44Z"/><path class="cls-1" d="M28.65,40H1.47A1.47,1.47,0,0,1,0,38.53V9.12A1.47,1.47,0,0,1,1.47,7.66H15.06a1.47,1.47,0,0,1,1.47,1.47V16H28.65a1.47,1.47,0,0,1,1.47,1.47V38.53A1.47,1.47,0,0,1,28.65,40ZM1.47,9.1l0,29.43,0,0H28.65l0-21.08-12.87,0a.72.72,0,0,1-.72-.72V9.12Z"/><path class="cls-1" d="M16.48,5.19a.72.72,0,0,1-.2-1.42l11-3.2a.72.72,0,0,1,.64.12l4.25,3.2A.72.72,0,1,1,31.25,5l-4-3-10.6,3.1A.72.72,0,0,1,16.48,5.19Z"/><path class="cls-1" d="M32.05,5.19H16.48a.72.72,0,0,1,0-1.45H32.05a.72.72,0,0,1,0,1.45Z"/><path class="cls-1" d="M26.07,17.43H26a.72.72,0,0,1-.66-.78l1.42-16A.72.72,0,0,1,27.49,0h0a.72.72,0,0,1,.72.66l1.3,16a.72.72,0,0,1-1.44.12l-.61-7.53-.67,7.54A.72.72,0,0,1,26.07,17.43Z"/><path class="cls-1" d="M21.13,10.1a.72.72,0,0,1-.72-.72V4.47a.72.72,0,1,1,1.45,0V9.38A.72.72,0,0,1,21.13,10.1Z"/><path class="cls-1" d="M21.63,12.77h-1a2.06,2.06,0,0,1,0-4.11h1a2.06,2.06,0,0,1,0,4.11Zm-1-2.67a.61.61,0,0,0,0,1.22h1a.61.61,0,0,0,0-1.22Z"/></g></g></svg>