<svg xmlns="http://www.w3.org/2000/svg" viewBox="0 0 46.93 40"><defs><style>.cls-1{fill:#f73;}</style></defs><title>8.Technology</title><g id="Layer_2" data-name="Layer 2"><g id="Layer_1-2" data-name="Layer 1"><path class="cls-1" d="M43.62,40H3.31a.72.72,0,0,1-.57-.28L.15,36.41A.72.72,0,0,1,0,36v-1.2A.72.72,0,0,1,.72,34H17.85a.72.72,0,0,1,.51.21l1.3,1.3h7.61l1.3-1.3a.72.72,0,0,1,.51-.21H46.21a.72.72,0,0,1,.72.72V36a.72.72,0,0,1-.15.45l-2.59,3.31A.72.72,0,0,1,43.62,40Zm-40-1.45H43.27l2.22-2.84v-.23H29.39l-1.3,1.3a.72.72,0,0,1-.51.21H19.36a.72.72,0,0,1-.51-.21l-1.3-1.3H1.45v.23Z"/><path class="cls-1" d="M20.74,31.9a.72.72,0,0,1-.72-.72V29.81a.72.72,0,0,1,1.45,0v1.36A.72.72,0,0,1,20.74,31.9Z"/><path class="cls-1" d="M18,31.9a.72.72,0,0,1-.72-.72V29.81a.72.72,0,0,1,1.45,0v1.36A.72.72,0,0,1,18,31.9Z"/><path class="cls-1" d="M23.47,31.9a.72.72,0,0,1-.72-.72V29.81a.72.72,0,1,1,1.45,0v1.36A.72.72,0,0,1,23.47,31.9Z"/><path class="cls-1" d="M26.2,31.9a.72.72,0,0,1-.72-.72V29.81a.72.72,0,0,1,1.45,0v1.36A.72.72,0,0,1,26.2,31.9Z"/><path class="cls-1" d="M28.92,31.9a.72.72,0,0,1-.72-.72V29.81a.72.72,0,0,1,1.45,0v1.36A.72.72,0,0,1,28.92,31.9Z"/><path class="cls-1" d="M23.47,27.42a.72.72,0,0,1-.72-.72V2.14a.72.72,0,0,1,.72-.72h13a.72.72,0,0,1,0,1.45H24.19V26.7A.72.72,0,0,1,23.47,27.42Z"/><path class="cls-1" d="M20.74,27.42A.72.72,0,0,1,20,26.7V.77a.72.72,0,0,1,1.45,0V26.7A.72.72,0,0,1,20.74,27.42Z"/><path class="cls-1" d="M28.92,27.42a.72.72,0,0,1-.72-.72V15.78a.72.72,0,0,1,.72-.72H33a.72.72,0,0,1,0,1.45H29.65V26.7A.72.72,0,0,1,28.92,27.42Z"/><path class="cls-1" d="M20.74,1.45H11.87a.72.72,0,0,1,0-1.45h8.87a.72.72,0,0,1,0,1.45Z"/><path class="cls-1" d="M26.2,27.42a.72.72,0,0,1-.72-.72V4.86a.72.72,0,1,1,1.45,0V26.7A.72.72,0,0,1,26.2,27.42Z"/><path class="cls-1" d="M18,27.42a.72.72,0,0,1-.72-.72V15.14H10.5a.72.72,0,1,1,0-1.45H18a.72.72,0,0,1,.72.72V26.7A.72.72,0,0,1,18,27.42Z"/><path class="cls-1" d="M5.57,1.45H4.89A.72.72,0,0,1,4.89,0h.68a.72.72,0,1,1,0,1.45Z"/><path class="cls-1" d="M9.06,1.45H8.38A.72.72,0,0,1,8.38,0h.68a.72.72,0,0,1,0,1.45Z"/><path class="cls-1" d="M39.92,2.86h-.68a.72.72,0,0,1,0-1.45h.68a.72.72,0,0,1,0,1.45Z"/><path class="cls-1" d="M43.41,2.86h-.68a.72.72,0,0,1,0-1.45h.68a.72.72,0,0,1,0,1.45Z"/><path class="cls-1" d="M43.18,31.9H31.81a.72.72,0,0,1,0-1.45H42.46V9.95a2.31,2.31,0,0,0-2.31-2.31H6.79A2.31,2.31,0,0,0,4.48,9.95v20.5H15.13a.72.72,0,0,1,0,1.45H3.76A.72.72,0,0,1,3,31.17V9.95A3.76,3.76,0,0,1,6.79,6.19H40.15A3.76,3.76,0,0,1,43.9,9.95V31.17A.72.72,0,0,1,43.18,31.9Z"/></g></g></svg>