<svg xmlns="http://www.w3.org/2000/svg" viewBox="0 0 31.14 40"><defs><style>.cls-1{fill:#f73;}</style></defs><title>9.Transport</title><g id="Layer_2" data-name="Layer 2"><g id="Layer_1-2" data-name="Layer 1"><path class="cls-1" d="M28.14,34.72H3c-1.66,0-3-1.69-3-3.77V3.77C0,1.69,1.38,0,3,0h25.1c1.66,0,3,1.69,3,3.77V30.95C31.14,33,29.79,34.72,28.14,34.72ZM1.47,9.64V30.95c0,1.26.71,2.32,1.56,2.32h25.1c.85,0,1.56-1.06,1.56-2.32V3.77c0-1.26-.71-2.32-1.56-2.32H3c-.85,0-1.56,1.06-1.56,2.32Z"/><path class="cls-1" d="M30.45,7.37H.72a.72.72,0,0,1,0-1.45H30.45"/><path class="cls-1" d="M30.45,24.21H.72a.72.72,0,1,1,0-1.45H30.45"/><path class="cls-1" d="M14.16,4.4h-5A.72.72,0,1,1,9.21,3h5a.72.72,0,0,1,0,1.45Z"/><path class="cls-1" d="M18.12,4.4h-1a.72.72,0,0,1,0-1.45h1a.72.72,0,0,1,0,1.45Z"/><path class="cls-1" d="M5.72,30.65a2.21,2.21,0,1,1,2.21-2.21A2.21,2.21,0,0,1,5.72,30.65Zm0-3a.76.76,0,1,0,.76.76A.76.76,0,0,0,5.72,27.68Z"/><path class="cls-1" d="M25.44,30.65a2.21,2.21,0,1,1,2.21-2.21A2.21,2.21,0,0,1,25.44,30.65Zm0-3a.76.76,0,1,0,.76.76A.76.76,0,0,0,25.44,27.68Z"/><path class="cls-1" d="M5.59,40H4.17a2.31,2.31,0,0,1-2.31-2.31V34.16a.72.72,0,0,1,1.45,0v3.53a.87.87,0,0,0,.87.87H5.59a.87.87,0,0,0,.87-.87V34.16a.72.72,0,0,1,1.45,0v3.53A2.31,2.31,0,0,1,5.59,40Z"/><path class="cls-1" d="M27,40H25.58a2.31,2.31,0,0,1-2.31-2.31V34.16a.72.72,0,1,1,1.45,0v3.53a.87.87,0,0,0,.87.87H27a.87.87,0,0,0,.87-.87V34.16a.72.72,0,1,1,1.45,0v3.53A2.31,2.31,0,0,1,27,40Z"/></g></g></svg>