<svg xmlns="http://www.w3.org/2000/svg" viewBox="0 0 41.01 40"><defs><style>.cls-1,.cls-2{fill:#fff;}.cls-1{fill-rule:evenodd;}</style></defs><title>Github-White</title><g id="Layer_2" data-name="Layer 2"><g id="Layer_1-2" data-name="Layer 1"><path class="cls-1" d="M20.51,0A20.51,20.51,0,0,0,14,40c1,.19,1.4-.45,1.4-1s0-2.1,0-3.82c-5.7,1.24-6.91-2.42-6.91-2.42a5.43,5.43,0,0,0-2.28-3c-1.86-1.27.14-1.25.14-1.25a4.31,4.31,0,0,1,3.14,2.11c1.83,3.13,4.8,2.23,6,1.7a4.37,4.37,0,0,1,1.3-2.74c-4.55-.52-9.34-2.28-9.34-10.13a7.94,7.94,0,0,1,2.11-5.5,7.37,7.37,0,0,1,.2-5.43s1.72-.55,5.64,2.1a19.45,19.45,0,0,1,10.27,0C29.56,8,31.28,8.5,31.28,8.5a7.36,7.36,0,0,1,.2,5.43,7.92,7.92,0,0,1,2.11,5.5c0,7.88-4.8,9.61-9.36,10.12a4.9,4.9,0,0,1,1.39,3.8c0,2.74,0,5,0,5.63S26,40.16,27,40A20.51,20.51,0,0,0,20.51,0Z"/><path class="cls-2" d="M7.77,29.44c0,.1-.21.13-.35.06s-.23-.21-.18-.31.2-.13.35-.06.23.21.18.31Zm-.25-.19"/><path class="cls-2" d="M8.6,30.37c-.1.09-.29,0-.42-.09a.31.31,0,0,1-.06-.43c.1-.09.29,0,.42.09s.16.33.06.43Zm-.2-.21"/><path class="cls-2" d="M9.41,31.55c-.13.09-.33,0-.46-.18s-.13-.4,0-.49.33,0,.46.17.13.4,0,.49Zm0,0"/><path class="cls-2" d="M10.51,32.69c-.11.12-.35.09-.53-.08a.39.39,0,0,1-.12-.52c.11-.12.35-.09.53.08s.23.4.11.52Zm0,0"/><path class="cls-2" d="M12,33.35c0,.16-.28.23-.51.17s-.38-.26-.34-.42.28-.24.51-.16.38.26.34.42Zm0,0"/><path class="cls-2" d="M13.72,33.48c0,.17-.19.31-.44.31s-.44-.13-.45-.3.19-.31.44-.31.44.13.44.3Zm0,0"/><path class="cls-2" d="M15.28,33.21c0,.16-.14.33-.38.38s-.46-.06-.49-.22.14-.34.38-.38.46.06.49.22Zm0,0"/></g></g></svg>