<?xml version="1.0" encoding="UTF-8"?>
<svg width="178px" height="65px" viewBox="0 0 178 65" version="1.1" xmlns="http://www.w3.org/2000/svg" xmlns:xlink="http://www.w3.org/1999/xlink">
    <!-- Generator: Sketch 48.2 (47327) - http://www.bohemiancoding.com/sketch -->
    <title>Logo/Noir 1 ligne</title>
    <desc>Created with Sketch.</desc>
    <defs>
        <polygon id="path-1" points="0 63.9400892 177.339875 63.9400892 177.339875 0.0757371683 0 0.0757371683"></polygon>
    </defs>
    <g id="Navigation/Home" stroke="none" stroke-width="1" fill="none" fill-rule="evenodd" transform="translate(-218.000000, -29.000000)">
        <g id="Logo/Noir-1-ligne" transform="translate(217.000000, 28.000000)">
            <g id="Group" transform="translate(1.146497, 1.728814)">
                <polygon id="Fill-1" fill="#1D1D1B" points="48.4114895 0.587642938 48.4114895 10.4209016 55.2320536 10.4209016 55.2320536 9.31976963 49.7185798 9.31976963 49.7185798 5.91793022 54.8193568 5.91793022 54.8193568 4.81484239 49.7185798 4.81484239 49.7185798 1.68747105 55.1923462 1.68747105 55.1923462 0.587642938"></polygon>
                <polygon id="Fill-2" fill="#1D1D1B" points="56.0368776 0.588816436 56.0368776 1.68864455 59.3085091 1.68864455 59.3085091 10.4201193 60.6155995 10.4201193 60.6155995 1.68864455 63.8898348 1.68864455 63.8898348 0.588816436"></polygon>
                <path d="M66.6483293,0.588229687 L62.8136334,10.4214884 L64.1610821,10.4214884 L65.2585693,7.45840671 L69.4122265,7.45840671 L70.4836761,10.4214884 L71.928766,10.4214884 L68.0927683,0.588229687 L66.6483293,0.588229687 Z M67.3357234,1.77085458 L67.3637139,1.77085458 L69.0008315,6.3585786 L65.6719171,6.3585786 L67.3357234,1.77085458 Z" id="Fill-3" fill="#1D1D1B"></path>
                <polygon id="Fill-4" fill="#1D1D1B" points="70.8511976 0.588816436 70.8511976 1.68864455 74.124131 1.68864455 74.124131 10.4201193 75.4312214 10.4201193 75.4312214 1.68864455 78.7035039 1.68864455 78.7035039 0.588816436"></polygon>
                <path d="M85.4576069,9.31957405 L87.6291475,9.31957405 C88.5254938,9.31957405 90.9307223,9.0711837 90.9307223,5.44963945 C90.9307223,3.10785961 90.0662721,1.6892313 87.657138,1.6892313 L85.4576069,1.6892313 L85.4576069,9.31957405 Z M84.1518184,0.587447355 L87.5204403,0.587447355 C90.545365,0.587447355 92.2378127,2.10125937 92.2378127,5.27035508 C92.2378127,8.56071221 90.7933737,10.420706 87.5204403,10.420706 L84.1518184,10.420706 L84.1518184,0.587447355 Z" id="Fill-5" fill="#000000"></path>
                <polygon id="Fill-7" fill="#000000" points="94.0984636 0.587773326 100.881924 0.587773326 100.881924 1.68760144 95.405554 1.68760144 95.405554 4.81432084 100.507633 4.81432084 100.507633 5.91806061 95.405554 5.91806061 95.405554 9.31990002 100.923584 9.31990002 100.923584 10.421032 94.0984636 10.421032"></polygon>
                <polygon id="Fill-9" fill="#000000" points="106.864271 0.587773326 113.311846 0.587773326 113.311846 1.68760144 108.171361 1.68760144 108.171361 4.81432084 112.679782 4.81432084 112.679782 5.91806061 108.171361 5.91806061 108.171361 10.421032 106.864271 10.421032"></polygon>
                <path d="M119.056729,5.11890868 C120.277895,5.11890868 121.324609,4.8020643 121.324609,3.36909324 C121.324609,2.40552125 120.803205,1.68903571 119.578784,1.68903571 L116.331237,1.68903571 L116.331237,5.11890868 L119.056729,5.11890868 Z M115.024798,0.587903715 L119.646482,0.587903715 C121.489948,0.587903715 122.631699,1.59254813 122.631699,3.16373114 C122.631699,4.34765992 122.107041,5.32427078 120.926233,5.6554579 L120.926233,5.68349146 C122.066031,5.9031963 122.299719,6.74485492 122.394757,7.70712303 C122.477426,8.67134696 122.422747,9.74509735 122.974746,10.4205105 L121.515986,10.4205105 C121.1456,10.0215212 121.3526,8.96211361 121.15927,7.99593385 C121.023223,7.03366574 120.788884,6.22004068 119.524105,6.22004068 L116.331237,6.22004068 L116.331237,10.4205105 L115.024798,10.4205105 L115.024798,0.587903715 Z" id="Fill-11" fill="#000000"></path>
                <mask id="mask-2" fill="white">
                    <use xlink:href="#path-1"></use>
                </mask>
                <g id="Clip-14"></g>
                <polygon id="Fill-13" fill="#000000" mask="url(#mask-2)" points="124.762686 10.4201193 126.069777 10.4201193 126.069777 0.586860606 124.762686 0.586860606"></polygon>
                <path d="M129.848752,9.31957405 L133.121685,9.31957405 C134.252371,9.31957405 134.965152,8.62916624 134.965152,7.5560678 C134.965152,6.27499949 133.935362,5.91773463 132.833969,5.91773463 L129.848752,5.91773463 L129.848752,9.31957405 Z M129.848752,4.81464681 L132.463584,4.81464681 C133.949683,4.81464681 134.554408,4.27809759 134.554408,3.24541962 C134.554408,1.88155453 133.589712,1.6892313 132.463584,1.6892313 L129.848752,1.6892313 L129.848752,4.81464681 Z M128.541662,0.587447355 L132.106868,0.587447355 C132.971318,0.587447355 134.115022,0.587447355 134.705426,0.944712207 C135.349858,1.33001061 135.857592,2.0321534 135.857592,2.99702928 C135.857592,4.04339805 135.308198,4.82833761 134.402738,5.20190104 L134.402738,5.22863071 C135.610234,5.47571717 136.272242,6.38582982 136.272242,7.59648827 C136.272242,9.04315015 135.239198,10.420706 133.287025,10.420706 L128.541662,10.420706 L128.541662,0.587447355 Z" id="Fill-15" fill="#000000" mask="url(#mask-2)"></path>
                <path d="M142.384452,9.55323047 C144.77601,9.55323047 145.783017,7.4872226 145.783017,5.5040115 C145.783017,3.52080041 144.77601,1.45479254 142.384452,1.45479254 C139.989638,1.45479254 138.986537,3.52080041 138.986537,5.5040115 C138.986537,7.4872226 139.989638,9.55323047 142.384452,9.55323047 M142.384452,0.353660538 C145.503112,0.353660538 147.086852,2.83300038 147.086852,5.5040115 C147.086852,8.17567458 145.503112,10.6543625 142.384452,10.6543625 C139.262537,10.6543625 137.679447,8.17567458 137.679447,5.5040115 C137.679447,2.83300038 139.262537,0.353660538 142.384452,0.353660538" id="Fill-16" fill="#000000" mask="url(#mask-2)"></path>
                <path d="M156.783992,6.86846335 C156.783992,9.34780318 155.36559,10.6556012 152.920003,10.6556012 C150.390445,10.6556012 148.891327,9.48536319 148.891327,6.86846335 L148.891327,0.587642938 L150.195163,0.587642938 L150.195163,6.86846335 C150.195163,8.6032841 151.185896,9.55316528 152.920003,9.55316528 C154.57014,9.55316528 155.47625,8.6032841 155.47625,6.86846335 L155.47625,0.587642938 L156.783992,0.587642938 L156.783992,6.86846335 Z" id="Fill-17" fill="#000000" mask="url(#mask-2)"></path>
                <path d="M163.170052,5.11890868 C164.390568,5.11890868 165.437932,4.8020643 165.437932,3.36909324 C165.437932,2.40552125 164.916528,1.68903571 163.691457,1.68903571 L160.444561,1.68903571 L160.444561,5.11890868 L163.170052,5.11890868 Z M159.13747,0.587903715 L163.759805,0.587903715 C165.603272,0.587903715 166.745023,1.59254813 166.745023,3.16373114 C166.745023,4.34765992 166.222968,5.32427078 165.040858,5.6554579 L165.040858,5.68349146 C166.179355,5.9031963 166.416297,6.74485492 166.511986,7.70712303 C166.594004,8.67134696 166.539976,9.74509735 167.088069,10.4205105 L165.629309,10.4205105 C165.260876,10.0215212 165.465923,8.96211361 165.272593,7.99593385 C165.135896,7.03366574 164.902208,6.22004068 163.637428,6.22004068 L160.444561,6.22004068 L160.444561,10.4205105 L159.13747,10.4205105 L159.13747,0.587903715 Z" id="Fill-18" fill="#000000" mask="url(#mask-2)"></path>
                <path d="M176.169808,9.19479212 C175.410811,10.2274701 174.175975,10.6551448 173.019252,10.6551448 C170.088714,10.6551448 168.344191,8.25860175 168.344191,5.69646513 C168.344191,2.83182688 169.912959,0.353790926 173.019252,0.353790926 C175.162802,0.353790926 176.868919,1.31671097 177.24256,3.61807033 L175.93612,3.61807033 C175.673791,2.1296841 174.477361,1.45557487 173.019252,1.45557487 C170.640712,1.45557487 169.652583,3.51962691 169.652583,5.62801109 C169.652583,7.67967622 170.832089,9.55401281 173.019252,9.55401281 C175.039774,9.55401281 176.250525,8.13342866 176.169808,6.34384468 L173.03162,6.34384468 L173.03162,5.24271269 L177.33955,5.24271269 L177.33955,10.4210972 L176.512203,10.4210972 L176.169808,9.19479212 Z" id="Fill-19" fill="#000000" mask="url(#mask-2)"></path>
                <path d="M54.0909533,23.1364662 C53.9399349,21.7328326 53.0045321,21.1252216 51.6577343,21.1252216 C50.5569924,21.1252216 49.4575523,21.5248627 49.4575523,22.805931 C49.4575523,24.0185453 51.0250192,24.1978297 52.6061559,24.5550945 C54.1736229,24.9123594 55.7423917,25.4625994 55.7423917,27.3916992 C55.7423917,29.4857407 53.6919262,30.3247915 51.905092,30.3247915 C49.705561,30.3247915 47.8477742,29.2516931 47.8477742,26.8544981 L49.0852138,26.8544981 C49.0852138,28.507174 50.460653,29.2236595 51.9454504,29.2236595 C53.128211,29.2236595 54.4346504,28.8527039 54.4346504,27.4340755 C54.4346504,26.0839012 52.8678344,25.8498537 51.3003675,25.5056277 C49.7315987,25.1600978 48.150462,24.7063454 48.150462,22.9030706 C48.150462,20.9055167 49.9249283,20.0240896 51.7137153,20.0240896 C53.7199167,20.0240896 55.2463743,20.9739708 55.3290439,23.1364662 L54.0909533,23.1364662 Z" id="Fill-20" fill="#000000" mask="url(#mask-2)"></path>
                <polygon id="Fill-21" fill="#000000" mask="url(#mask-2)" points="59.2673696 21.3595299 55.996389 21.3595299 55.996389 20.2583979 63.8480444 20.2583979 63.8480444 21.3595299 60.57446 21.3595299 60.57446 30.0916566 59.2673696 30.0916566"></polygon>
                <path d="M65.6305823,26.0288121 L68.9594967,26.0288121 L67.3223791,21.4430439 L67.2943886,21.4430439 L65.6305823,26.0288121 Z M66.6076454,20.2584631 L68.0520844,20.2584631 L71.8867803,30.0917218 L70.4429922,30.0917218 L69.3708917,27.1299441 L65.2172345,27.1299441 L64.1197473,30.0917218 L62.7716477,30.0917218 L66.6076454,20.2584631 Z" id="Fill-22" fill="#000000" mask="url(#mask-2)"></path>
                <path d="M74.8085959,26.0288121 L78.1355575,26.0288121 L76.4984398,21.4430439 L76.4724022,21.4430439 L74.8085959,26.0288121 Z M75.785008,20.2584631 L77.229447,20.2584631 L81.0667467,30.0917218 L79.6210058,30.0917218 L78.5489053,27.1299441 L74.3952481,27.1299441 L73.2958081,30.0917218 L71.9477084,30.0917218 L75.785008,20.2584631 Z" id="Fill-23" fill="#000000" mask="url(#mask-2)"></path>
                <polygon id="Fill-24" fill="#000000" mask="url(#mask-2)" points="83.2612655 21.3595299 79.9883321 21.3595299 79.9883321 20.2583979 87.8380346 20.2583979 87.8380346 21.3595299 84.567054 21.3595299 84.567054 30.0916566 83.2612655 30.0916566"></polygon>
                <polygon id="Fill-25" fill="#000000" mask="url(#mask-2)" points="93.2885623 20.2581372 99.7400427 20.2581372 99.7400427 21.3592692 94.5956527 21.3592692 94.5956527 24.4846847 99.1092805 24.4846847 99.1092805 25.5884244 94.5956527 25.5884244 94.5956527 30.0913959 93.2885623 30.0913959"></polygon>
                <path d="M105.481021,24.7886206 C106.702187,24.7886206 107.7489,24.4724281 107.7489,23.0394571 C107.7489,22.077189 107.227496,21.3593996 106.003076,21.3593996 L102.755529,21.3593996 L102.755529,24.7886206 L105.481021,24.7886206 Z M101.449089,20.2576156 L106.071424,20.2576156 C107.91424,20.2576156 109.056642,21.2642159 109.056642,22.834095 C109.056642,24.0180238 108.531332,24.9946346 107.350524,25.3251698 L107.350524,25.3538553 C108.490974,25.5735601 108.724011,26.4145668 108.819699,27.3794427 C108.901718,28.3436666 108.84769,29.4167651 109.399688,30.0908743 L107.940928,30.0908743 C107.569892,29.692537 107.776891,28.6324775 107.583561,27.6676016 C107.447515,26.7040296 107.213176,25.8904045 105.948396,25.8904045 L102.755529,25.8904045 L102.755529,30.0908743 L101.449089,30.0908743 L101.449089,20.2576156 Z" id="Fill-26" fill="#000000" mask="url(#mask-2)"></path>
                <polygon id="Fill-27" fill="#000000" mask="url(#mask-2)" points="111.136074 20.2581372 117.91628 20.2581372 117.91628 21.3592692 112.443815 21.3592692 112.443815 24.4846847 117.545894 24.4846847 117.545894 25.5884244 112.443815 25.5884244 112.443815 28.9902639 117.958591 28.9902639 117.958591 30.0913959 111.136074 30.0913959"></polygon>
                <polygon id="Fill-28" fill="#000000" mask="url(#mask-2)" points="119.862399 30.0918522 121.166235 30.0918522 121.166235 20.2585935 119.862399 20.2585935"></polygon>
                <path d="M124.94508,28.9892859 L128.218014,28.9892859 C129.344793,28.9892859 130.06148,28.3014859 130.06148,27.2264316 C130.06148,25.9473192 129.027785,25.5880985 127.926392,25.5880985 L124.94508,25.5880985 L124.94508,28.9892859 Z M124.94508,24.4850106 L127.556006,24.4850106 C129.042756,24.4850106 129.64683,23.9504173 129.64683,22.9170873 C129.64683,21.5532223 128.68604,21.3595951 127.556006,21.3595951 L124.94508,21.3595951 L124.94508,24.4850106 Z M123.641244,20.2578112 L127.19929,20.2578112 C128.06374,20.2578112 129.207445,20.2578112 129.797848,20.6170319 C130.446186,21.0023303 130.95392,21.7044731 130.95392,22.668697 C130.95392,23.7157177 130.404526,24.4987015 129.495812,24.8722649 L129.495812,24.8983426 C130.706563,25.146081 131.364664,26.0561937 131.364664,27.268156 C131.364664,28.7148179 130.335526,30.0910699 128.383353,30.0910699 L123.641244,30.0910699 L123.641244,20.2578112 Z" id="Fill-29" fill="#000000" mask="url(#mask-2)"></path>
                <path d="M141.163286,26.5381752 C141.163286,29.018167 139.744884,30.3253131 137.299297,30.3253131 C134.769739,30.3253131 133.270621,29.1550751 133.270621,26.5381752 L133.270621,20.2580068 L134.578362,20.2580068 L134.578362,26.5381752 C134.578362,28.2736479 135.565189,29.2235291 137.299297,29.2235291 C138.949434,29.2235291 139.855544,28.2736479 139.855544,26.5381752 L139.855544,20.2580068 L141.163286,20.2580068 L141.163286,26.5381752 Z" id="Fill-30" fill="#000000" mask="url(#mask-2)"></path>
                <path d="M147.545571,24.7886206 C148.770643,24.7886206 149.817356,24.4724281 149.817356,23.0394571 C149.817356,22.077189 149.292698,21.3593996 148.071531,21.3593996 L144.823985,21.3593996 L144.823985,24.7886206 L147.545571,24.7886206 Z M143.520149,20.2576156 L148.13988,20.2576156 C149.982695,20.2576156 151.121192,21.2642159 151.121192,22.834095 C151.121192,24.0180238 150.599137,24.9946346 149.415075,25.3251698 L149.415075,25.3538553 C150.55943,25.5735601 150.792467,26.4145668 150.887504,27.3794427 C150.970174,28.3436666 150.916145,29.4167651 151.464238,30.0908743 L150.008733,30.0908743 C149.635093,29.692537 149.845347,28.6324775 149.648763,27.6676016 C149.512065,26.7040296 149.278377,25.8904045 148.016852,25.8904045 L144.823985,25.8904045 L144.823985,30.0908743 L143.520149,30.0908743 L143.520149,20.2576156 Z" id="Fill-31" fill="#000000" mask="url(#mask-2)"></path>
                <path d="M160.548516,28.8658079 C159.789518,29.8991378 158.554032,30.3261606 157.39796,30.3261606 C154.470676,30.3261606 152.7242,27.9296175 152.7242,25.3674809 C152.7242,22.5028427 154.291667,20.0235028 157.39796,20.0235028 C159.543463,20.0235028 161.247627,20.9877268 161.621268,23.2890861 L160.314828,23.2890861 C160.054452,21.8006999 158.856068,21.1265907 157.39796,21.1265907 C155.018769,21.1265907 154.028036,23.1906427 154.028036,25.2990269 C154.028036,27.350692 155.212098,29.2250286 157.39796,29.2250286 C159.418482,29.2250286 160.630535,27.8044444 160.548516,26.0155124 L157.41228,26.0155124 L157.41228,24.9124246 L161.718258,24.9124246 L161.718258,30.0908091 L160.89026,30.0908091 L160.548516,28.8658079 Z" id="Fill-32" fill="#000000" mask="url(#mask-2)"></path>
                <path d="M-0.000130188283,61.3464637 L-0.000130188283,63.9405455 C7.78708196,61.9534228 16.0045664,57.2652995 20.475883,53.0654817 C23.5509302,50.1845448 26.1208469,46.9085305 28.2116707,43.013822 C28.2364065,42.9649263 28.3386043,42.7973769 28.3698495,42.750437 C30.2237307,39.1758326 31.6798866,35.0320819 32.7025156,30.1575029 C35.4878939,16.6890091 31.3498593,3.03014799 30.3767019,1.38007985 C29.5539119,-0.0157304571 28.0222468,0.0722818695 26.9625142,0.0788013011 C26.7132036,0.0788013011 26.4691006,0.0807571306 26.2230447,0.0807571306 L-0.000130188283,0.0807571306 L-0.000130188283,30.9900343 L20.2161573,30.9900343 C20.3177042,30.9900343 20.7043634,31.0095926 20.8026556,31.0428417 C21.4718233,31.1569318 21.9828123,31.63611 22.097378,32.2443729 C22.1396892,32.4295248 22.1624722,32.6348869 22.1461986,32.8409009 C21.9828123,38.8857179 18.8771709,51.0679278 1.5777518,58.8456097 L-0.000130188283,59.5229787 L-0.000130188283,61.3464637 Z" id="Fill-33" fill="#000000" mask="url(#mask-2)"></path>
            </g>
        </g>
    </g>
</svg>