<svg xmlns="http://www.w3.org/2000/svg" viewBox="0 0 40 40"><defs><style>.cls-1{fill:#fff;}</style></defs><title>Medium-White</title><g id="Layer_2" data-name="Layer 2"><g id="Layer_1-2" data-name="Layer 1"><path class="cls-1" d="M0,0V40H40V0ZM33.23,9.48l-2.15,2.06a.63.63,0,0,0-.24.6V27.25a.63.63,0,0,0,.24.6l2.1,2.06v.45H22.64v-.45l2.17-2.11c.21-.21.21-.28.21-.6V15L19,30.31h-.82L11.15,15V25.25a1.42,1.42,0,0,0,.39,1.18l2.82,3.42v.45h-8v-.45l2.82-3.42a1.37,1.37,0,0,0,.36-1.18V13.38a1,1,0,0,0-.34-.88l-2.51-3V9h7.79l6,13.21L25.8,9h7.43Z"/></g></g></svg>