<svg xmlns="http://www.w3.org/2000/svg" viewBox="0 0 49.88 40"><defs><style>.cls-1{fill:#135;}</style></defs><title>Asset 8</title><g id="Layer_2" data-name="Layer 2"><g id="Layer_1-2" data-name="Layer 1"><path class="cls-1" d="M27.13,40A3.18,3.18,0,0,1,25,39.08a3.18,3.18,0,0,1-2.17.92,2.85,2.85,0,0,1-2.89-2.55l.2-18.84-5.63-3.19a2.6,2.6,0,0,1-1.24-3.59A2.57,2.57,0,0,1,16.83,11l2.44,1.36L22.35,14a32,32,0,0,1,5.19,0l3.12-1.74L33.05,11a2.57,2.57,0,0,1,3.58.83,2.61,2.61,0,0,1-1.2,3.62l-5.64,3.2L30,37.44a2.28,2.28,0,0,1-.7,1.62A3.2,3.2,0,0,1,27.13,40Zm-1.44-2.49a1.51,1.51,0,0,0,1.44,1A1.75,1.75,0,0,0,28.28,38a.89.89,0,0,0,.29-.59L28.34,18.2a.72.72,0,0,1,.37-.64l6-3.4c.89-.53.93-1.22.68-1.65a1.12,1.12,0,0,0-1.62-.3l-2.4,1.34L28.07,15.4a.71.71,0,0,1-.22.08.88.88,0,0,1-.22,0,31,31,0,0,0-5.38,0h-.19a.88.88,0,0,1-.25-.09l-3.25-1.82-2.44-1.36a1.13,1.13,0,0,0-1.64.33c-.25.45-.2,1.11.7,1.62l6,3.4a.72.72,0,0,1,.37.64l-.2,19.26c0,.52.76,1.1,1.45,1.1a1.53,1.53,0,0,0,1.44-1s0,0,0-.06V26.66a.72.72,0,1,1,1.45,0V37.38a.65.65,0,0,1,0,.07S25.68,37.49,25.68,37.51Z"/><path class="cls-1" d="M24.94,14.43A4.09,4.09,0,1,1,29,10.34,4.1,4.1,0,0,1,24.94,14.43Zm0-6.74a2.65,2.65,0,1,0,2.65,2.65A2.65,2.65,0,0,0,24.94,7.69Z"/><path class="cls-1" d="M14.21,33.76a2.85,2.85,0,0,1-2.89-2.55V20.41a.72.72,0,0,1,1.45,0V31.21c0,.53.76,1.1,1.45,1.1a1.75,1.75,0,0,0,1.16-.51.89.89,0,0,0,.29-.59l-.19-15a.72.72,0,1,1,1.45,0l.19,15a2.28,2.28,0,0,1-.7,1.62A3.2,3.2,0,0,1,14.21,33.76Z"/><path class="cls-1" d="M16.48,12.31a.72.72,0,0,1-.34-1.36l5.09-2.71a.72.72,0,0,1,.68,1.28l-5.09,2.71A.72.72,0,0,1,16.48,12.31Z"/><path class="cls-1" d="M9.88,33.76A2.85,2.85,0,0,1,7,31.21l.2-18.84L1.55,9.17A2.6,2.6,0,0,1,.31,5.59a2.57,2.57,0,0,1,3.61-.88L6.34,6.06,9.43,7.79a31.89,31.89,0,0,1,5.19,0l3.11-1.74,2.4-1.34a2.69,2.69,0,0,1,2.56-.14A2.45,2.45,0,0,1,24,6.45a.72.72,0,0,1-1.43.18A1,1,0,0,0,22,5.87a1.26,1.26,0,0,0-1.2.1l-2.4,1.34L15.16,9.15a.72.72,0,0,1-.23.08h-.21a31.27,31.27,0,0,0-5.38,0H9.16a.89.89,0,0,1-.26-.09L5.63,7.33,3.21,6a1.13,1.13,0,0,0-1.64.33c-.25.45-.2,1.11.7,1.62l6,3.4a.72.72,0,0,1,.37.64l-.2,19.26c0,.52.76,1.1,1.45,1.1s1.45-.59,1.45-1.1a.72.72,0,1,1,1.45,0A2.85,2.85,0,0,1,9.88,33.76Z"/><path class="cls-1" d="M12,8.19a4.09,4.09,0,1,1,4.09-4.09A4.1,4.1,0,0,1,12,8.19Zm0-6.74a2.65,2.65,0,1,0,2.65,2.65A2.65,2.65,0,0,0,12,1.45Z"/><path class="cls-1" d="M40,33.76a2.85,2.85,0,0,1-2.89-2.55V20.41a.72.72,0,1,1,1.45,0V31.21c0,.53.76,1.1,1.45,1.1a1.75,1.75,0,0,0,1.16-.51.88.88,0,0,0,.29-.58L41.25,12a.72.72,0,0,1,.37-.64l6-3.4c.89-.53.93-1.22.68-1.65A1.12,1.12,0,0,0,46.68,6L44.21,7.35,41,9.15a.72.72,0,0,1-.23.08h-.21a31.28,31.28,0,0,0-5.38,0H35a.88.88,0,0,1-.26-.09L31.48,7.34,29,6a1.22,1.22,0,0,0-1.19-.1,1,1,0,0,0-.57.79.72.72,0,0,1-1.43-.19,2.48,2.48,0,0,1,1.35-1.9,2.69,2.69,0,0,1,2.55.13l2.44,1.36,3.08,1.72a31.89,31.89,0,0,1,5.19,0l3.06-1.71L46,4.71a2.57,2.57,0,0,1,3.58.83,2.61,2.61,0,0,1-1.2,3.62l-5.64,3.2.23,18.83a2.28,2.28,0,0,1-.7,1.62A3.2,3.2,0,0,1,40,33.76Z"/><path class="cls-1" d="M32.92,12.2a.72.72,0,0,1-.36-.1L27.43,9.17a.72.72,0,0,1,.72-1.25l5.13,2.94a.72.72,0,0,1-.36,1.35Z"/><path class="cls-1" d="M35.7,33.76a2.85,2.85,0,0,1-2.89-2.55L33,15.55a.72.72,0,0,1,.72-.71h0a.72.72,0,0,1,.71.73l-.19,15.65c0,.52.76,1.09,1.45,1.09s1.45-.59,1.45-1.1a.72.72,0,0,1,1.45,0A2.85,2.85,0,0,1,35.7,33.76Z"/><path class="cls-1" d="M37.85,8.19a4.09,4.09,0,1,1,4.09-4.09A4.1,4.1,0,0,1,37.85,8.19Zm0-6.74A2.65,2.65,0,1,0,40.5,4.09,2.65,2.65,0,0,0,37.85,1.45Z"/></g></g></svg>