<?xml version="1.0" encoding="utf-8"?>
<!-- Generator: Adobe Illustrator 21.1.0, SVG Export Plug-In . SVG Version: 6.00 Build 0)  -->
<svg version="1.1" id="Layer_1" xmlns="http://www.w3.org/2000/svg" xmlns:xlink="http://www.w3.org/1999/xlink" x="0px" y="0px"
	 viewBox="0 0 31.2 40" style="enable-background:new 0 0 31.2 40;" xml:space="preserve">
<style type="text/css">
	.st0{fill:#113355;}
</style>
<title>Asset 10</title>
<g id="Layer_2">
	<g id="Layer_1-2">
		<path class="st0" d="M28.1,34.7H3c-1.7,0-3-1.7-3-3.8V3.8C0,1.7,1.4,0,3,0h25.1c1.7,0,3,1.7,3,3.8V31C31.1,33,29.8,34.7,28.1,34.7
			z M1.5,9.6V31c0,1.3,0.7,2.3,1.6,2.3h25.1c0.9,0,1.6-1.1,1.6-2.3V3.8c0-1.3-0.7-2.3-1.6-2.3H3c-0.8,0-1.6,1.1-1.6,2.3L1.5,9.6z"/>
		<path class="st0" d="M30.5,7.4H0.7C0.3,7.4,0,7,0,6.6s0.3-0.7,0.7-0.7h29.7"/>
		<path class="st0" d="M30.5,24.2L30.5,24.2H0.7c-0.4,0-0.7-0.3-0.7-0.7s0.3-0.7,0.7-0.7h29.7"/>
		<path class="st0" d="M14.2,4.4h-5C8.8,4.5,8.4,4.2,8.3,3.8C8.2,3.4,8.5,3.1,8.9,3C9,3,9.1,3,9.2,3h5c0.4,0,0.7,0.3,0.7,0.7
			S14.6,4.4,14.2,4.4L14.2,4.4z"/>
		<path class="st0" d="M18.1,4.4h-1c-0.4,0-0.7-0.3-0.7-0.7S16.7,3,17.1,3l0,0h1c0.4,0,0.7,0.3,0.7,0.7S18.5,4.4,18.1,4.4z"/>
		<path class="st0" d="M5.7,30.6c-1.2,0-2.2-1-2.2-2.2c0-1.2,1-2.2,2.2-2.2s2.2,1,2.2,2.2S6.9,30.6,5.7,30.6
			C5.7,30.6,5.7,30.6,5.7,30.6z M5.7,27.6C5.3,27.6,5,28,5,28.4s0.3,0.8,0.8,0.8s0.8-0.3,0.8-0.8l0,0C6.5,28,6.1,27.7,5.7,27.6
			L5.7,27.6z"/>
		<path class="st0" d="M25.4,30.6c-1.2,0-2.2-1-2.2-2.2s1-2.2,2.2-2.2s2.2,1,2.2,2.2S26.7,30.6,25.4,30.6L25.4,30.6z M25.4,27.6
			c-0.4,0-0.8,0.3-0.8,0.8s0.3,0.8,0.8,0.8s0.8-0.3,0.8-0.8C26.2,28,25.8,27.7,25.4,27.6L25.4,27.6z"/>
		<path class="st0" d="M5.6,40H4.2c-1.3,0-2.3-1-2.3-2.3l0,0v-3.5c0-0.4,0.3-0.7,0.7-0.7s0.7,0.3,0.7,0.7v3.5c0,0.5,0.4,0.9,0.9,0.9
			h1.4c0.5,0,0.9-0.4,0.9-0.9v-3.5c0-0.4,0.3-0.7,0.7-0.7s0.7,0.3,0.7,0.7v3.5C7.9,39,6.9,40,5.6,40C5.6,40,5.6,40,5.6,40z"/>
		<path class="st0" d="M27,40h-1.4c-1.3,0-2.3-1-2.3-2.3l0,0v-3.5c0-0.4,0.3-0.7,0.7-0.7s0.7,0.3,0.7,0.7v3.5c0,0.5,0.4,0.9,0.9,0.9
			H27c0.5,0,0.9-0.4,0.9-0.9v-3.5c0-0.4,0.3-0.7,0.7-0.7s0.7,0.3,0.7,0.7v3.5C29.3,39,28.3,40,27,40C27,40,27,40,27,40z"/>
	</g>
</g>
</svg>
